<?xml version="1.0" standalone="no"?>
<!DOCTYPE svg PUBLIC "-//W3C//DTD SVG 20010904//EN"
 "http://www.w3.org/TR/2001/REC-SVG-20010904/DTD/svg10.dtd">
<svg version="1.0" xmlns="http://www.w3.org/2000/svg"
 width="71.000000pt" height="70.000000pt" viewBox="0 0 71.000000 70.000000"
 preserveAspectRatio="xMidYMid meet">
<g transform="translate(0.000000,70.000000) scale(0.100000,-0.100000)"
fill="currentColor" stroke="none">
<path d="M385 620 c25 -22 56 -40 68 -40 34 -1 108 -38 146 -73 18 -18 44 -54
57 -82 l24 -50 0 143 0 142 -171 0 -170 0 46 -40z"/>
<path d="M223 409 c-39 -11 -41 -23 -8 -45 20 -13 31 -14 55 -6 29 11 31 9 45
-25 20 -46 19 -48 -10 -61 -86 -39 -230 21 -271 113 -12 26 -13 8 -14 -152 l0
-183 128 -1 c70 -1 142 -1 160 -1 72 3 142 67 142 132 0 21 5 42 10 45 22 14
8 31 -34 43 -53 14 -106 69 -106 111 0 41 -29 50 -97 30z m-83 -199 c0 -5 -7
-10 -15 -10 -8 0 -15 -4 -15 -10 0 -18 29 -10 35 10 7 23 64 29 66 8 0 -10 2
-10 6 0 9 22 33 13 33 -13 0 -14 5 -25 10 -25 6 0 10 -4 10 -10 0 -5 -11 -10
-25 -10 -14 0 -25 5 -25 10 0 6 -8 5 -20 -2 -16 -10 -24 -10 -40 0 -12 7 -20
8 -20 2 0 -15 -36 -12 -50 5 -18 22 -3 55 26 55 13 0 24 -4 24 -10z m209 -7
c10 -17 10 -17 11 0 0 19 30 24 31 5 0 -10 2 -10 6 0 9 23 31 12 38 -19 7 -30
-3 -56 -12 -31 -4 10 -8 10 -19 1 -11 -9 -14 -9 -14 1 0 9 -4 9 -17 -1 -12
-11 -17 -11 -20 -2 -3 9 -9 10 -22 1 -35 -22 -76 16 -51 47 17 20 57 19 69 -2z"/>
<path d="M170 190 c0 -5 5 -10 10 -10 6 0 10 5 10 10 0 6 -4 10 -10 10 -5 0
-10 -4 -10 -10z"/>
<path d="M300 190 c0 -5 5 -10 10 -10 6 0 10 5 10 10 0 6 -4 10 -10 10 -5 0
-10 -4 -10 -10z"/>
</g>
</svg>
